<svg xmlns="http://www.w3.org/2000/svg" xmlns:xlink="http://www.w3.org/1999/xlink" viewBox="0 0 1304.24 125.06"><defs><style>.cls-1{fill:url(#Degradado_sin_nombre_125);}.cls-2{fill:url(#Degradado_sin_nombre_125-2);}.cls-3{fill:url(#Degradado_sin_nombre_125-3);}.cls-4{fill:url(#Degradado_sin_nombre_125-4);}.cls-5{fill:url(#Degradado_sin_nombre_125-5);}.cls-6{fill:url(#Degradado_sin_nombre_125-6);}.cls-7{fill:url(#Degradado_sin_nombre_125-7);}.cls-8{fill:url(#Degradado_sin_nombre_125-8);}.cls-9{fill:url(#Degradado_sin_nombre_125-9);}.cls-10{fill:url(#Degradado_sin_nombre_125-10);}.cls-11{fill:#5ce0e6;}.cls-12{fill:url(#Degradado_sin_nombre_125-11);}.cls-13{fill:url(#Degradado_sin_nombre_125-12);}.cls-14{fill:url(#Degradado_sin_nombre_125-13);}.cls-15{fill:url(#Degradado_sin_nombre_125-14);}.cls-16{fill:url(#Degradado_sin_nombre_125-15);}.cls-17{fill:url(#Degradado_sin_nombre_125-16);}.cls-18{fill:url(#Degradado_sin_nombre_125-17);}.cls-19{fill:url(#Degradado_sin_nombre_125-18);}.cls-20{fill:url(#Degradado_sin_nombre_125-19);}.cls-21{fill:url(#Degradado_sin_nombre_125-20);}</style><linearGradient id="Degradado_sin_nombre_125" x1="1373.62" y1="140.88" x2="1210.9" y2="54.78" gradientUnits="userSpaceOnUse"><stop offset="0" stop-color="#f0f"/><stop offset="1" stop-color="#5ce1e6"/></linearGradient><linearGradient id="Degradado_sin_nombre_125-2" x1="1347.65" y1="71.89" x2="1244.82" y2="17.48" xlink:href="#Degradado_sin_nombre_125"/><linearGradient id="Degradado_sin_nombre_125-3" x1="1305.44" y1="98.89" x2="1249.6" y2="81.9" xlink:href="#Degradado_sin_nombre_125"/><linearGradient id="Degradado_sin_nombre_125-4" x1="1309.01" y1="87.14" x2="1253.18" y2="70.15" xlink:href="#Degradado_sin_nombre_125"/><linearGradient id="Degradado_sin_nombre_125-5" x1="480.41" y1="65.12" x2="1133.01" y2="73.83" xlink:href="#Degradado_sin_nombre_125"/><linearGradient id="Degradado_sin_nombre_125-6" x1="480.27" y1="75.8" x2="1132.86" y2="84.5" xlink:href="#Degradado_sin_nombre_125"/><linearGradient id="Degradado_sin_nombre_125-7" x1="480.49" y1="59.32" x2="1133.08" y2="68.03" xlink:href="#Degradado_sin_nombre_125"/><linearGradient id="Degradado_sin_nombre_125-8" x1="480.53" y1="56.09" x2="1133.13" y2="64.79" xlink:href="#Degradado_sin_nombre_125"/><linearGradient id="Degradado_sin_nombre_125-9" x1="480.57" y1="53.43" x2="1133.16" y2="62.13" xlink:href="#Degradado_sin_nombre_125"/><linearGradient id="Degradado_sin_nombre_125-10" x1="480.57" y1="53.24" x2="1133.17" y2="61.94" xlink:href="#Degradado_sin_nombre_125"/><linearGradient id="Degradado_sin_nombre_125-11" x1="6.34" y1="58.83" x2="515.59" y2="-7.69" xlink:href="#Degradado_sin_nombre_125"/><linearGradient id="Degradado_sin_nombre_125-12" x1="8.42" y1="74.7" x2="517.66" y2="8.18" xlink:href="#Degradado_sin_nombre_125"/><linearGradient id="Degradado_sin_nombre_125-13" x1="9.33" y1="81.66" x2="518.57" y2="15.14" xlink:href="#Degradado_sin_nombre_125"/><linearGradient id="Degradado_sin_nombre_125-14" x1="10.52" y1="90.79" x2="519.76" y2="24.27" xlink:href="#Degradado_sin_nombre_125"/><linearGradient id="Degradado_sin_nombre_125-15" x1="11.12" y1="95.37" x2="520.36" y2="28.84" xlink:href="#Degradado_sin_nombre_125"/><linearGradient id="Degradado_sin_nombre_125-16" x1="11.93" y1="101.59" x2="521.17" y2="35.07" xlink:href="#Degradado_sin_nombre_125"/><linearGradient id="Degradado_sin_nombre_125-17" x1="11.98" y1="102" x2="521.23" y2="35.47" xlink:href="#Degradado_sin_nombre_125"/><linearGradient id="Degradado_sin_nombre_125-18" x1="12.93" y1="109.21" x2="522.17" y2="42.68" xlink:href="#Degradado_sin_nombre_125"/><linearGradient id="Degradado_sin_nombre_125-19" x1="15.71" y1="130.54" x2="524.95" y2="64.01" xlink:href="#Degradado_sin_nombre_125"/><linearGradient id="Degradado_sin_nombre_125-20" x1="15.53" y1="129.17" x2="524.78" y2="62.65" xlink:href="#Degradado_sin_nombre_125"/></defs><title>Recurso 41</title><g id="Capa_2" data-name="Capa 2"><g id="Capa_1-2" data-name="Capa 1"><path class="cls-1" d="M1303.32,44.43a1.7,1.7,0,0,0-2.52,1.37c0,.56,0,1.13,0,1.7,0,11.91,0,47.82,0,59.73a9.35,9.35,0,0,1-.47,3,15.39,15.39,0,0,1-3.32,6.16,15.75,15.75,0,0,1-12.16,5.18c-16.12.14-32.25.07-48.37,0a13.76,13.76,0,0,1-4.58-.64c-3.14-1.17-6-2.59-8.19-5.52a15.13,15.13,0,0,1-3.12-9.18c0-16.85,0-33.7,0-50.55a13.7,13.7,0,0,1,1.29-5.56c2.66-6.06,7.63-9,14-9.17,10-.24,12.09-.06,22.14-.06,2.35,0,4.7,0,7,0,.64,0,1.21-.16,1.39-.68a1.89,1.89,0,0,0-.29-2,2.44,2.44,0,0,0-2.13-.77c-12.4,0-16.79,0-29.19,0a11.78,11.78,0,0,0-3.87.6c-4.36,1.53-8.24,3.81-10.8,7.84a18.11,18.11,0,0,0-3,10.19c.12,8.26,0,16.53,0,24.79q0,12.77,0,25.52a19,19,0,0,0,2.94,10,16.41,16.41,0,0,0,5.84,5.63c1.22.72,2.63,1.1,3.88,1.77,1.54.82,3.32.41,4.88,1.14a4.27,4.27,0,0,0,1.68,0c13,0,26.09.05,39.13,0,4.23,0,8.46.41,12.7-.38a27.29,27.29,0,0,0,5-1.47,17.48,17.48,0,0,0,9.06-8.48,14.55,14.55,0,0,0,1.93-7c0-12.24,0-48.47,0-60.7a7.9,7.9,0,0,1,0-1.46C1304.37,44.7,1303.8,44.65,1303.32,44.43Z"/><path class="cls-2" d="M1299.86,38.38a2.56,2.56,0,0,0-1-.27c-.78,0-1.6.2-2.33-.3a11.65,11.65,0,0,1-4.07-.92,7.84,7.84,0,0,1-2.53-1.28,5.89,5.89,0,0,1-1.65-2.84,22.75,22.75,0,0,1-1.25-6.55,2.38,2.38,0,0,0-.32-1.08c-.15-.24-.51-.35-.78-.51-.07.08-.13.18-.22.21a1.25,1.25,0,0,0-.82,1.33,17.54,17.54,0,0,1-.65,4.5,13.5,13.5,0,0,1-1.31,3.75,4,4,0,0,1-1.73,1.71,18.53,18.53,0,0,1-5.59,1.73c-.94.13-1.86.22-2.8.27-.27,0-.52.22-.79.29a.73.73,0,0,0-.65.85,1.45,1.45,0,0,0,1,1c.79,0,1.57.18,2.33.26a17.3,17.3,0,0,1,4.52,1,7.69,7.69,0,0,1,2.65,1.4,5.77,5.77,0,0,1,1.73,2.66,21.26,21.26,0,0,1,1,3.89,13.11,13.11,0,0,1,.35,3.25c0,.36.54,1,.9,1.07s.63-.18.9-.41a1.13,1.13,0,0,0,.35-.94,20.62,20.62,0,0,1,.35-3.7,13.66,13.66,0,0,1,.54-1.91c.28-.66.34-1.4.66-2a5.76,5.76,0,0,1,1.38-2,7.49,7.49,0,0,1,2.27-1.16,29.26,29.26,0,0,1,4-1c1.06-.19,2.16-.22,3.24-.33a1.46,1.46,0,0,0,1-.93C1300.64,38.8,1300.33,38.59,1299.86,38.38Z"/><path class="cls-3" d="M1258.92,59.81h-13.39l-17.66,40.4h13.85l2.71-7h15.37l2.7,7h14.09Zm2,20.06c-.67.07-1.36.09-2,.2a18.51,18.51,0,0,0-2.51.65,4.47,4.47,0,0,0-1.41.72,3.58,3.58,0,0,0-.86,1.25c-.2.39-.24.86-.41,1.27a8.46,8.46,0,0,0-.34,1.19,13.48,13.48,0,0,0-.22,2.3.69.69,0,0,1-.21.59c-.17.14-.31.32-.57.26s-.59-.45-.55-.67a8.16,8.16,0,0,0-.23-2,12.94,12.94,0,0,0-.59-2.42,3.61,3.61,0,0,0-1.08-1.66,4.85,4.85,0,0,0-1.65-.87,11.11,11.11,0,0,0-2.81-.62c-.48,0-1-.14-1.46-.16a.89.89,0,0,1-.61-.62.45.45,0,0,1,.4-.53c.17,0,.32-.17.49-.18.59,0,1.16-.09,1.74-.17a11.41,11.41,0,0,0,3.49-1.07,2.48,2.48,0,0,0,1.08-1.07,8.69,8.69,0,0,0,.82-2.34,11,11,0,0,0,.4-2.8.77.77,0,0,1,.51-.83c.05,0,.09-.08.14-.13.16.1.39.17.48.32a1.42,1.42,0,0,1,.2.67,14.46,14.46,0,0,0,.78,4.08,3.66,3.66,0,0,0,1,1.77,4.81,4.81,0,0,0,1.58.8,7.16,7.16,0,0,0,2.53.57c.45.31,1,.17,1.45.19a1.54,1.54,0,0,1,.6.17c.3.13.49.26.46.59A.91.91,0,0,1,1260.94,79.87Z"/><rect class="cls-4" x="1278.77" y="59.81" width="13.62" height="40.4"/><path class="cls-5" d="M636.72,120.33a50.2,50.2,0,0,1-6.24,1,82.1,82.1,0,0,1-8.41.57,36.19,36.19,0,0,1-7.25-.57,13.36,13.36,0,0,1-5.23-2.17,9.43,9.43,0,0,1-3.19-4.48,21.51,21.51,0,0,1-1-7.52V79.28H571v41.05a49.54,49.54,0,0,1-6.24,1,81.74,81.74,0,0,1-8.26.57,36.29,36.29,0,0,1-7.26-.57,13.38,13.38,0,0,1-5.22-2.17,9.43,9.43,0,0,1-3.19-4.48,21.51,21.51,0,0,1-1-7.52V12.79c1.3-.29,3.33-.58,6.23-1a54.76,54.76,0,0,1,8.27-.58,35.41,35.41,0,0,1,7.25.58,13.16,13.16,0,0,1,5.22,2.16,9.46,9.46,0,0,1,3.2,4.49,22,22,0,0,1,1,7.51V54.56h34.38V12.79c1.3-.29,3.33-.58,6.23-1a54.85,54.85,0,0,1,8.27-.58,35.41,35.41,0,0,1,7.25.58,13.21,13.21,0,0,1,5.23,2.16,9.51,9.51,0,0,1,3.19,4.49,22,22,0,0,1,1,7.51v94.39Z"/><path class="cls-6" d="M657.6,35.48a41.81,41.81,0,0,1,5.66-1,71.15,71.15,0,0,1,8-.58,36.62,36.62,0,0,1,7.11.58,10.05,10.05,0,0,1,5.22,2.17A9.93,9.93,0,0,1,686.9,41a19.65,19.65,0,0,1,1.16,7.22V86.65c0,4.92,1.16,8.39,3.63,10.41,2.32,2,5.8,3.18,10.44,3.18a27.8,27.8,0,0,0,6.68-.72,24.34,24.34,0,0,0,4.06-1.45V35.48a41.59,41.59,0,0,1,5.65-1,71.5,71.5,0,0,1,8-.58,36.62,36.62,0,0,1,7.11.58,10,10,0,0,1,5.22,2.17A12.44,12.44,0,0,1,742.17,41a19.87,19.87,0,0,1,1.16,7.22v54.35A14.67,14.67,0,0,1,735.79,116a48.21,48.21,0,0,1-14.94,5.92A85.2,85.2,0,0,1,702,124a68.29,68.29,0,0,1-17.84-2.17,38.4,38.4,0,0,1-14.07-6.65,30.15,30.15,0,0,1-9.14-11.56c-2.18-4.77-3.19-10.41-3.19-17.06v-51Z"/><path class="cls-7" d="M762.33,4.69c1.16-.29,3-.72,5.8-1.15A49.29,49.29,0,0,1,776.25,3a35.79,35.79,0,0,1,7.11.58,10.09,10.09,0,0,1,5.22,2.16A12,12,0,0,1,791.77,10a20,20,0,0,1,1,7.23V34.76a43.07,43.07,0,0,1,8.56-2.46,56.5,56.5,0,0,1,8.84-.72,44.42,44.42,0,0,1,16.39,3A39.46,39.46,0,0,1,849.5,57.89c2.32,5.78,3.34,12.28,3.34,19.8a53.76,53.76,0,0,1-3.48,20.24,41,41,0,0,1-9.72,14.45,43.09,43.09,0,0,1-15.38,8.68,63.27,63.27,0,0,1-20,2.89c-7.84,0-14.65-.87-20-2.75a52,52,0,0,1-13.92-6.94q-7.84-5.64-7.84-14.31V4.69ZM804.39,100c5.51,0,9.72-1.88,12.77-5.64s4.64-9.25,4.64-16.76-1.6-13.16-4.64-16.77-7.26-5.49-12.62-5.49a25.68,25.68,0,0,0-6.24.72,28,28,0,0,0-5.66,2.17v39a14.57,14.57,0,0,0,4.79,2,31.47,31.47,0,0,0,7,.72Z"/><path class="cls-8" d="M961.86,56.6a38.88,38.88,0,0,0-16.32-8L967,26.8V2.66H880.13V32.29h41.66L904.6,49.77V73.91h15.48q7.49,0,10.65,2.08a6.68,6.68,0,0,1,3.17,5.91,7.23,7.23,0,0,1-4.25,6.74,23.21,23.21,0,0,1-10.9,2.25,63.57,63.57,0,0,1-15.57-2.08,61.75,61.75,0,0,1-15.73-6.41l-13.31,29a78.91,78.91,0,0,0,21.64,7.83,115.08,115.08,0,0,0,24.3,2.66q18.64,0,30.38-5.83t17.31-15a36.23,36.23,0,0,0,5.58-19.14Q973.35,66.42,961.86,56.6Z"/><path class="cls-9" d="M1065.15,48.36a43.22,43.22,0,0,0-19.73-4.58,44.59,44.59,0,0,0-14.31,2.08,31.9,31.9,0,0,0-8.79,4.53,24,24,0,0,1,6.37-12.85q7.08-7.08,18.9-7.08a46.24,46.24,0,0,1,10.73,1.25,30,30,0,0,1,10.41,4.91l14.15-27.46a53.65,53.65,0,0,0-16.23-6.75A81.59,81.59,0,0,0,1046.76,0q-19.15,0-33.71,7.66a55.11,55.11,0,0,0-22.73,22.05q-8.15,14.4-8.15,34.88,0,19,7.07,31.71a46,46,0,0,0,19.65,19.14q12.55,6.41,29.21,6.41a56,56,0,0,0,23.89-5,41.55,41.55,0,0,0,17.06-14.14q6.32-9.17,6.32-21.64,0-11.49-5.57-19.81A37.82,37.82,0,0,0,1065.15,48.36Zm-19.23,40.86a10,10,0,0,1-4.24,4.08,13.46,13.46,0,0,1-6.24,1.42,13,13,0,0,1-6.16-1.42,10.68,10.68,0,0,1-4.25-4.08,13.45,13.45,0,0,1,0-12.65,11.38,11.38,0,0,1,4.25-4.16,12.33,12.33,0,0,1,6.16-1.5,11.84,11.84,0,0,1,8.65,3.25,11.64,11.64,0,0,1,3.33,8.74A12.65,12.65,0,0,1,1045.92,89.22Z"/><path class="cls-10" d="M1182.67,62.17q-4.74-8.4-15.15-13.4t-27.71-5h-6l.89-11.49h45.09V2.66h-77.41l-5.82,70.75h33.79a44.8,44.8,0,0,1,10.9,1,9.58,9.58,0,0,1,5.24,2.91,7,7,0,0,1,1.5,4.41,7.38,7.38,0,0,1-4.33,6.83,23.05,23.05,0,0,1-11,2.33,62.45,62.45,0,0,1-15.48-2.08,61.82,61.82,0,0,1-15.65-6.41l-13.32,29a79.16,79.16,0,0,0,21.64,7.83,115.17,115.17,0,0,0,24.31,2.66q18.63,0,30.37-5.91t17.32-15.31a38.19,38.19,0,0,0,5.57-19.73A37.49,37.49,0,0,0,1182.67,62.17Z"/><circle class="cls-11" cx="1201.16" cy="114.88" r="9.49"/><path class="cls-12" d="M0,87.49v-57H23.47a31.49,31.49,0,0,1,13,2.44,18.9,18.9,0,0,1,8.35,7,19.64,19.64,0,0,1,2.93,10.84,19.68,19.68,0,0,1-2.93,10.84,18.88,18.88,0,0,1-8.35,7,31.48,31.48,0,0,1-13,2.45H5.87l4.72-5V87.49ZM10.59,67.2,5.87,62.06H23q7,0,10.55-3a10.28,10.28,0,0,0,3.55-8.35q0-5.46-3.55-8.4T23,39.41H5.87l4.72-5.21Z"/><path class="cls-13" d="M76.76,88.06a24.17,24.17,0,0,1-11.89-2.89,21.63,21.63,0,0,1-8.24-8,22,22,0,0,1-3-11.49,21.94,21.94,0,0,1,3-11.53,21.4,21.4,0,0,1,8.24-7.86,24.37,24.37,0,0,1,11.89-2.85,24.8,24.8,0,0,1,12,2.85A21.08,21.08,0,0,1,97,54.16a22,22,0,0,1,3,11.57,22.16,22.16,0,0,1-3,11.49,21.19,21.19,0,0,1-8.23,8A24.6,24.6,0,0,1,76.76,88.06Zm0-8.72a13.46,13.46,0,0,0,6.68-1.63A11.49,11.49,0,0,0,88.05,73a15.07,15.07,0,0,0,1.67-7.25,15,15,0,0,0-1.67-7.29,11.57,11.57,0,0,0-4.61-4.69,14.26,14.26,0,0,0-13.24,0,11.93,11.93,0,0,0-4.6,4.69,14.72,14.72,0,0,0-1.71,7.29A14.75,14.75,0,0,0,65.6,73a11.84,11.84,0,0,0,4.6,4.73A13.11,13.11,0,0,0,76.76,79.34Z"/><path class="cls-14" d="M118.16,87.49,102.19,44h9.61l13.69,38.38h-4.56L135.27,44h8.56l13.93,38.38h-4.48L167.38,44h9l-16,43.52h-9.78l-12.71-34h3l-12.95,34Z"/><path class="cls-15" d="M202.66,88.06A26.59,26.59,0,0,1,190,85.17a21,21,0,0,1-8.39-8,22.16,22.16,0,0,1-3-11.49,22.55,22.55,0,0,1,2.9-11.53,20.64,20.64,0,0,1,8-7.86,23.36,23.36,0,0,1,11.61-2.85,22.86,22.86,0,0,1,11.33,2.77,20,20,0,0,1,7.82,7.82A23.8,23.8,0,0,1,223.11,66c0,.44,0,.93,0,1.47S223,68.5,223,69H186.69V62.23h30.88l-4,2.12a12.5,12.5,0,0,0-1.55-6.6,12,12,0,0,0-4.44-4.49,12.73,12.73,0,0,0-6.48-1.63,12.92,12.92,0,0,0-6.56,1.63,11.62,11.62,0,0,0-4.4,4.53,13.89,13.89,0,0,0-1.59,6.8v1.63a13.26,13.26,0,0,0,1.8,6.93,11.89,11.89,0,0,0,5,4.64,16.48,16.48,0,0,0,7.49,1.63,18.15,18.15,0,0,0,6.61-1.14,14,14,0,0,0,5.21-3.59L220.18,81a19.3,19.3,0,0,1-7.37,5.26A26.51,26.51,0,0,1,202.66,88.06Z"/><path class="cls-16" d="M232.89,87.49V44h9.7V56l-1.14-3.5a13.74,13.74,0,0,1,6.15-6.68,21.74,21.74,0,0,1,10.47-2.28v9.69a7.19,7.19,0,0,0-1.22-.2c-.38,0-.76,0-1.14,0a12.54,12.54,0,0,0-9.21,3.38q-3.42,3.38-3.42,10.06V87.49Z"/><path class="cls-17" d="M286.76,88.06a26.59,26.59,0,0,1-12.67-2.89,21,21,0,0,1-8.4-8,22.25,22.25,0,0,1-3-11.49,22.64,22.64,0,0,1,2.89-11.53,20.74,20.74,0,0,1,8-7.86,23.34,23.34,0,0,1,11.61-2.85,22.86,22.86,0,0,1,11.33,2.77,20,20,0,0,1,7.82,7.82A23.8,23.8,0,0,1,307.21,66c0,.44,0,.93,0,1.47s-.07,1.06-.12,1.55H270.79V62.23h30.88l-4,2.12a12.6,12.6,0,0,0-1.55-6.6,12,12,0,0,0-4.44-4.49,13.85,13.85,0,0,0-13,0,11.62,11.62,0,0,0-4.4,4.53,13.89,13.89,0,0,0-1.59,6.8v1.63a13.35,13.35,0,0,0,1.79,6.93,12,12,0,0,0,5.06,4.64A16.48,16.48,0,0,0,287,79.42a18.06,18.06,0,0,0,6.6-1.14,13.91,13.91,0,0,0,5.22-3.59L304.28,81a19.34,19.34,0,0,1-7.38,5.26A26.42,26.42,0,0,1,286.76,88.06Z"/><path class="cls-18" d="M335.41,88.06a22.7,22.7,0,0,1-11.29-2.81,20.43,20.43,0,0,1-7.86-7.79,23.07,23.07,0,0,1-2.86-11.73A23.07,23.07,0,0,1,316.26,54a20,20,0,0,1,7.86-7.74,22.89,22.89,0,0,1,11.29-2.77,19.78,19.78,0,0,1,9.77,2.4A17,17,0,0,1,352,53.18q2.52,4.89,2.53,12.55a28.13,28.13,0,0,1-2.45,12.51,16.77,16.77,0,0,1-6.76,7.38A20,20,0,0,1,335.41,88.06Zm1.22-8.72a13.11,13.11,0,0,0,6.56-1.63A12.14,12.14,0,0,0,347.83,73a14.44,14.44,0,0,0,1.75-7.25,14.41,14.41,0,0,0-1.75-7.29,12.23,12.23,0,0,0-4.64-4.69,14,14,0,0,0-13.12,0,12.25,12.25,0,0,0-4.65,4.69,14.41,14.41,0,0,0-1.75,7.29A14.44,14.44,0,0,0,325.42,73a12.16,12.16,0,0,0,4.65,4.73A13.08,13.08,0,0,0,336.63,79.34Zm13.2,8.15V77.22l.41-11.57-.82-11.57V27h10.11V87.49Z"/><path class="cls-19" d="M395.46,87.49V27h10.19V54.08l-.82,11.57.33,11.57V87.49Zm24.12.57a19.78,19.78,0,0,1-9.86-2.44,17,17,0,0,1-6.8-7.38,27.69,27.69,0,0,1-2.49-12.51q0-7.65,2.57-12.55a17.15,17.15,0,0,1,6.92-7.29,19.71,19.71,0,0,1,9.66-2.4A22.8,22.8,0,0,1,431,46.26,20.54,20.54,0,0,1,438.77,54a22.88,22.88,0,0,1,2.89,11.73,22.88,22.88,0,0,1-2.89,11.73A21,21,0,0,1,431,85.25,22.61,22.61,0,0,1,419.58,88.06Zm-1.14-8.72A13.11,13.11,0,0,0,425,77.71,11.84,11.84,0,0,0,429.6,73a14.64,14.64,0,0,0,1.71-7.25,14.61,14.61,0,0,0-1.71-7.29,11.93,11.93,0,0,0-4.6-4.69,13.22,13.22,0,0,0-6.56-1.63,13.45,13.45,0,0,0-6.6,1.63,11.92,11.92,0,0,0-4.65,4.69,14.72,14.72,0,0,0-1.71,7.29A14.75,14.75,0,0,0,407.19,73a11.83,11.83,0,0,0,4.65,4.73A13.34,13.34,0,0,0,418.44,79.34Z"/><path class="cls-20" d="M453.72,103.87a20.14,20.14,0,0,1-6.35-1.06,15.12,15.12,0,0,1-5.3-2.94l4.07-7.49a12.6,12.6,0,0,0,3.51,2.2,10.31,10.31,0,0,0,4,.81A6.91,6.91,0,0,0,458.12,94a12.68,12.68,0,0,0,3.18-4.65l2.53-5.7.81-1.22L481.1,44h9.78L470.51,91A28.57,28.57,0,0,1,466,98.73a13.83,13.83,0,0,1-5.54,4A19.13,19.13,0,0,1,453.72,103.87Zm9-14.83L443.05,44h10.59l16,37.57Z"/><path class="cls-21" d="M500.9,57a6.61,6.61,0,0,1-6.68-6.76,6.4,6.4,0,0,1,2-4.93,7,7,0,0,1,9.45,0,6.44,6.44,0,0,1,2,4.93A6.61,6.61,0,0,1,500.9,57Zm0,31.05a6.89,6.89,0,0,1-4.72-11.7,7,7,0,0,1,9.45,0,6.81,6.81,0,0,1-4.73,11.7Z"/></g></g></svg>
